<svg xmlns="http://www.w3.org/2000/svg" version="1.1" xmlns:xlink="http://www.w3.org/1999/xlink" xmlns:svgjs="http://svgjs.dev/svgjs" width="100%" height="100%" viewBox="0 0 1000 600"><rect width="1000" height="600" x="0" y="0" fill="#2f3c7e"/><g><rect width="333.3333333333333" height="333.3333333333333" rx="13.333333333333334" ry="13.333333333333334" y="235.11578628743308" fill="#fbeaeb" transform="matrix(0.5871479191226748,0,0,0.5871479191226748,0,64.09428323847746)" x="212.89352416992188"/><path d="M441.14942565479413 374.40326724203913L441.14942565479413 374.40326724203913L423.472846731832 374.40326724203913Q421.88362749112406 366.7638624709167 418.00816302694153 360.9924873336089Q414.132698562759 355.2211121963011 408.61225277924717 351.26200461418654Q403.06392595642467 347.302897032072 396.3724765218649 345.3233432410147Q389.6810270873051 343.3159084106468 382.4040758272213 343.3159084106468L382.4040758272213 343.3159084106468Q369.1327011153444 343.3159084106468 358.4263820200487 350.03523888451724Q347.6921818854424 356.726688319077 341.3631859619212 369.77501471646866Q335.06207107771075 382.82334111386024 335.06207107771075 401.782447845113L335.06207107771075 401.782447845113Q335.06207107771075 420.74155457636573 341.3631859619212 433.7898809737573Q347.6921818854424 446.83820737114894 358.4263820200487 453.5296568057087Q369.1327011153444 460.2211062402685 382.4040758272213 460.2211062402685L382.4040758272213 460.2211062402685Q389.6810270873051 460.2211062402685 396.3724765218649 458.24155244921127Q403.06392595642467 456.2341176188433 408.61225277924717 452.27501003672876Q414.132698562759 448.3159024546142 418.00816302694153 442.51664627799573Q421.88362749112406 436.71739010137725 423.472846731832 429.16162844818683L423.472846731832 429.16162844818683L441.14942565479413 429.16162844818683Q439.1419908244262 440.3419252117638 433.87247439471037 449.18021467324485Q428.6029579649945 458.0185041347259 420.7405048793868 464.18021382238305Q412.9059328330897 470.3419235100402 403.17545011366735 473.57612407007747Q393.44496739424494 476.782443590804 382.4040758272213 476.782443590804L382.4040758272213 476.782443590804Q363.7237794890752 476.782443590804 349.16987696890766 467.63746269690563Q334.64385548805075 458.52036284231787 326.3074247341617 441.7080961379864Q317.9709939802726 424.8679483943443 317.9709939802726 401.782447845113L317.9709939802726 401.782447845113Q317.9709939802726 378.66906625657106 326.3074247341617 361.8567995522395Q334.64385548805075 345.04453284790804 349.16987696890766 335.89955195400967Q363.7237794890752 326.78245209942196 382.4040758272213 326.78245209942196L382.4040758272213 326.78245209942196Q393.44496739424494 326.78245209942196 403.17545011366735 329.9887716201485Q412.9059328330897 333.1950911408751 420.7405048793868 339.35680082853224Q428.6029579649945 345.5185105161894 433.87247439471037 354.3289189383598Q439.1419908244262 363.13932736053016 441.14942565479413 374.40326724203913Z " fill="#2f3c7e" transform="matrix(0.5871479191226748,0,0,0.5871479191226748,0,64.09428323847746)"/><path d="M629.5602085385005 387.3727073813271L680.7824501181913 387.3727073813271L680.7824501181913 399.9379189779164L629.5602085385005 399.9379189779164L629.5602085385005 387.3727073813271ZM765.8547457143164 443.8490854827233L751.6797561195878 443.8490854827233L751.6797561195878 326.7824521735742L791.2311072127667 326.7824521735742Q805.0036523079606 326.7824521735742 813.7903572144725 331.72357630675253Q822.5547040932321 336.6647004399309 826.7803713383486 345.07131887465977Q831.0283966112169 353.47793730938855 831.0283966112169 363.8073461307841L831.0283966112169 363.8073461307841Q831.0283966112169 374.1591129799315 826.8250873938524 382.63280549791614Q822.621778176488 391.0841399881488 813.8797893254801 396.09233820458303Q805.1154424467203 401.07817839326526 791.4546874902859 401.07817839326526L791.4546874902859 401.07817839326526L763.1047083008281 401.07817839326526L763.1047083008281 388.5129667966759L791.0075269352473 388.5129667966759Q800.4426146465652 388.5129667966759 806.1439117233095 385.24869474489293Q811.8675668278057 382.00678072086185 814.4610980470305 376.41727378287726Q817.0769872940074 370.85012487264464 817.0769872940074 363.8073461307841L817.0769872940074 363.8073461307841Q817.0769872940074 356.7869254166754 814.4610980470305 351.2421345341947Q811.8675668278057 345.697343651714 806.0991956678055 342.5225037109388Q800.3308245078055 339.3476637701635 790.7839466577278 339.3476637701635L790.7839466577278 339.3476637701635L765.8547457143164 339.3476637701635L765.8547457143164 443.8490854827233ZM865.5491914602095 391.017065904893L865.5491914602095 391.017065904893L865.5491914602095 443.8490854827233L852.0673007257907 443.8490854827233L852.0673007257907 326.7824521735742L865.5491914602095 326.7824521735742L865.5491914602095 369.75458151279963L866.6894508755585 369.75458151279963Q869.774858705326 362.9577410762104 875.9903904203649 358.9332960808615Q882.1835641076517 354.9088510855126 892.5353309567992 354.9088510855126L892.5353309567992 354.9088510855126Q901.5009000853264 354.9088510855126 908.2530244664118 358.4637774980708Q915.0051488474973 362.0410619383809 918.7389394820708 369.3968530687686Q922.4950881443966 376.73028617140443 922.4950881443966 388.0658062416372L922.4950881443966 388.0658062416372L922.4950881443966 443.8490854827233L908.9908393822258 443.8490854827233L908.9908393822258 388.9601273517147Q908.9908393822258 378.5189283915595 903.5801966662567 372.77291525931133Q898.1919119780397 367.0269021270632 888.6450341279618 367.0269021270632L888.6450341279618 367.0269021270632Q882.0046998856361 367.0269021270632 876.7729213916826 369.82165559605545Q871.5411428977292 372.6164090650478 868.5451671789693 378.0046937532649Q865.5491914602095 383.3706204137301 865.5491914602095 391.017065904893ZM973.0242308637772 445.9060240359016L973.0242308637772 445.9060240359016Q964.6623284845522 445.9060240359016 957.8654880479629 442.73118409512637Q951.0686476113736 439.55634415435117 947.0665606437768 433.51967666132776Q943.0644736761798 427.5053671960564 943.0644736761798 418.9198845393121L943.0644736761798 418.9198845393121Q943.0644736761798 411.3852291869089 946.0380913671876 406.66768533124986Q949.0117090581954 401.9501414755909 953.9751912191258 399.2671781453583Q958.961031407808 396.5842148151257 964.9753408730793 395.2203751222574Q971.0120083661028 393.87889345714115 977.1381079701338 393.09636248582325L977.1381079701338 393.09636248582325Q985.1422819053279 392.0678932092341 990.1281220940101 391.50894251543565Q995.1363203104441 390.9723498493891 997.4615551966457 389.6532262120248Q999.7644320550954 388.3341025746604 999.7644320550954 385.0921885506294L999.7644320550954 385.0921885506294L999.7644320550954 384.62266996783865Q999.7644320550954 376.17133547760596 995.1586783381962 371.4761496496989Q990.5752826490487 366.7809638217919 981.2519850764905 366.7809638217919L981.2519850764905 366.7809638217919Q971.5933170876532 366.7809638217919 966.0932422606762 371.0289890946601Q960.6155254614515 375.2546563397765 958.3797226862577 380.06163230644324L958.3797226862577 380.06163230644324L945.5685727843969 375.47823661729586Q949.0117090581954 367.47406268210193 954.7577221904436 362.98009910396235Q960.5037353226918 358.5084935535747 967.3229337870329 356.6974933056677Q974.164490279126 354.9088510855126 980.7824664936999 354.9088510855126L980.7824664936999 354.9088510855126Q985.0304917665682 354.9088510855126 990.5305665935449 355.8926043065979Q996.0529994482737 356.8987155554351 1001.2400618867233 359.9841233852026Q1006.4047662974211 363.0695312149701 1009.8255445434676 369.3074209577609Q1013.268680817266 375.5453107005517 1013.268680817266 385.9865096607069L1013.268680817266 385.9865096607069L1013.268680817266 443.8490854827233L999.7644320550954 443.8490854827233L999.7644320550954 431.9546147186921L999.0936912225371 431.9546147186921Q997.7074935019172 434.81644227094023 994.5102955333899 438.0807143227232Q991.3130975648627 441.32262834675424 985.9918869599015 443.6255052052039Q980.6706763549402 445.9060240359016 973.0242308637772 445.9060240359016ZM975.0811694169555 433.78797299435104L975.0811694169555 433.78797299435104Q983.0853433521494 433.78797299435104 988.5854181791263 430.63549108132776Q994.1078510338549 427.5053671960564 996.9473205583512 422.51952700737417Q999.7644320550954 417.55604484644385 999.7644320550954 412.055970019467L999.7644320550954 412.055970019467L999.7644320550954 399.71433870039704Q998.9148270005218 400.74280797698617 996.0306414205219 401.5700550038079Q993.1464558405218 402.39730203062965 989.3903071781962 403.00096877993195Q985.6565165436224 403.6046355292343 982.146306186568 404.02943805652114Q978.6137378017617 404.4542405838079 976.4450091098237 404.74489494458317L976.4450091098237 404.74489494458317Q971.1908725881182 405.4379938048932 966.6521929544748 406.95833969202505Q962.0911552930794 408.4563275514049 959.318759851839 411.4746612979166Q956.5463644105986 414.47063701667633 956.5463644105986 419.6129833996221L956.5463644105986 419.6129833996221Q956.5463644105986 426.6334041137308 961.778142904552 430.2106885540409Q967.0099213985058 433.78797299435104 975.0811694169555 433.78797299435104ZM1051.4561922175767 443.8490854827233L1037.9519434554063 443.8490854827233L1037.9519434554063 356.04911050086145L1050.9866736347863 356.04911050086145L1050.9866736347863 369.3074209577609L1051.9033527726156 369.3074209577609Q1054.3180197698252 362.7788768541949 1060.6006255681195 358.73207383109406Q1066.8832313664143 354.66291278024124 1074.7756151628487 354.66291278024124L1074.7756151628487 354.66291278024124Q1076.2512449944766 354.66291278024124 1078.4870477696704 354.7299868634971Q1080.7228505448643 354.77470291900096 1081.863109960213 354.9088510855126L1081.863109960213 354.9088510855126L1081.863109960213 368.6143220974508Q1081.1700110999027 368.4578159031872 1078.7553441026935 368.0777294314043Q1076.3183190777322 367.6976429596213 1073.6353557474995 367.6976429596213L1073.6353557474995 367.6976429596213Q1067.2186017826934 367.6976429596213 1062.2327615940112 370.358248262102Q1057.224563377577 373.0188535645826 1054.3403777975768 377.6693233369858Q1051.4561922175767 382.34215113714095 1051.4561922175767 388.28938651915655L1051.4561922175767 388.28938651915655L1051.4561922175767 443.8490854827233ZM1111.3533485650196 443.8490854827233L1097.8714578306008 443.8490854827233L1097.8714578306008 356.04911050086145L1110.9061880099807 356.04911050086145L1110.9061880099807 369.75458151279963L1112.04644742533 369.75458151279963Q1114.7964848388183 362.734160798691 1120.9002264150972 358.8215059421018Q1127.0263260191286 354.9088510855126 1135.5894506481209 354.9088510855126L1135.5894506481209 354.9088510855126Q1144.2867234436249 354.9088510855126 1150.0774526313767 358.8215059421018Q1155.890539846881 362.734160798691 1159.1548118986639 369.75458151279963L1159.1548118986639 369.75458151279963L1160.0714910364932 369.75458151279963Q1163.4251951992837 362.9577410762104 1170.1773195803694 358.9332960808615Q1176.9294439614546 354.9088510855126 1186.364531672773 354.9088510855126L1186.364531672773 354.9088510855126Q1198.1248542702924 354.9088510855126 1205.6147935671916 362.2422841881484Q1213.1047328640911 369.5980753185361 1213.1047328640911 385.0921885506294L1213.1047328640911 385.0921885506294L1213.1047328640911 443.8490854827233L1199.6228421296723 443.8490854827233L1199.6228421296723 385.0921885506294Q1199.6228421296723 375.36644647853615 1194.301631524711 371.18549528892373Q1188.9804209197496 367.0269021270632 1181.7811359836255 367.0269021270632L1181.7811359836255 367.0269021270632Q1172.524912494323 367.0269021270632 1167.427282166881 372.59405103729586Q1162.352009867191 378.1611999475285 1162.352009867191 386.679608521017L1162.352009867191 386.679608521017L1162.352009867191 443.8490854827233L1148.6241808275008 443.8490854827233L1148.6241808275008 383.70599083000917Q1148.6241808275008 376.2160515331098 1143.7724888053303 371.61029781621056Q1138.9207967831594 367.0269021270632 1131.251993264245 367.0269021270632L1131.251993264245 367.0269021270632Q1125.9978567425392 367.0269021270632 1121.4591771088958 369.82165559605545Q1116.8981394475004 372.6164090650478 1114.12574400626 377.5575331982261Q1111.3533485650196 382.5210153591564 1111.3533485650196 388.9601273517147L1111.3533485650196 388.9601273517147L1111.3533485650196 443.8490854827233ZM1263.6562336112238 445.9060240359016L1263.6562336112238 445.9060240359016Q1255.294331231999 445.9060240359016 1248.4974907954092 442.73118409512637Q1241.70065035882 439.55634415435117 1237.6985633912232 433.51967666132776Q1233.6964764236263 427.5053671960564 1233.6964764236263 418.9198845393121L1233.6964764236263 418.9198845393121Q1233.6964764236263 411.3852291869089 1236.6700941146341 406.66768533124986Q1239.643711805642 401.9501414755909 1244.6071939665721 399.2671781453583Q1249.5930341552544 396.5842148151257 1255.607343620526 395.2203751222574Q1261.6440111135494 393.87889345714115 1267.7701107175803 393.09636248582325L1267.7701107175803 393.09636248582325Q1275.7742846527744 392.0678932092341 1280.7601248414567 391.50894251543565Q1285.7683230578905 390.9723498493891 1288.093557944092 389.6532262120248Q1290.396434802542 388.3341025746604 1290.396434802542 385.0921885506294L1290.396434802542 385.0921885506294L1290.396434802542 384.62266996783865Q1290.396434802542 376.17133547760596 1285.7906810856425 371.4761496496989Q1281.207285396495 366.7809638217919 1271.8839878239369 366.7809638217919L1271.8839878239369 366.7809638217919Q1262.2253198350995 366.7809638217919 1256.7252450081228 371.0289890946601Q1251.247528208898 375.2546563397765 1249.0117254337042 380.06163230644324L1249.0117254337042 380.06163230644324L1236.2005755318432 375.47823661729586Q1239.643711805642 367.47406268210193 1245.3897249378902 362.98009910396235Q1251.1357380701384 358.5084935535747 1257.9549365344797 356.6974933056677Q1264.7964930265725 354.9088510855126 1271.4144692411464 354.9088510855126L1271.4144692411464 354.9088510855126Q1275.6624945140147 354.9088510855126 1281.1625693409915 355.8926043065979Q1286.6850021957202 356.8987155554351 1291.8497066064178 359.9841233852026Q1297.0367690448675 363.0695312149701 1300.4575472909141 369.3074209577609Q1303.9006835647128 375.5453107005517 1303.9006835647128 385.9865096607069L1303.9006835647128 385.9865096607069L1303.9006835647128 443.8490854827233L1290.396434802542 443.8490854827233L1290.396434802542 431.9546147186921L1289.7256939699837 431.9546147186921Q1288.3394962493635 434.81644227094023 1285.1422982808363 438.0807143227232Q1281.945100312309 441.32262834675424 1276.623889707348 443.6255052052039Q1271.3026791023867 445.9060240359016 1263.6562336112238 445.9060240359016ZM1265.7131721644018 433.78797299435104L1265.7131721644018 433.78797299435104Q1273.717346099596 433.78797299435104 1279.2174209265727 430.63549108132776Q1284.7398537813015 427.5053671960564 1287.579323305798 422.51952700737417Q1290.396434802542 417.55604484644385 1290.396434802542 412.055970019467L1290.396434802542 412.055970019467L1290.396434802542 399.71433870039704Q1289.5468297479683 400.74280797698617 1286.6626441679682 401.5700550038079Q1283.778458587968 402.39730203062965 1280.0223099256427 403.00096877993195Q1276.288519291069 403.6046355292343 1272.7559509062626 404.02943805652114Q1269.2457405492082 404.4542405838079 1267.0770118572705 404.74489494458317L1267.0770118572705 404.74489494458317Q1261.8228753355647 405.4379938048932 1257.2841957019214 406.95833969202505Q1252.723158040526 408.4563275514049 1249.9507625992856 411.4746612979166Q1247.1783671580451 414.47063701667633 1247.1783671580451 419.6129833996221L1247.1783671580451 419.6129833996221Q1247.1783671580451 426.6334041137308 1252.4101456519988 430.2106885540409Q1257.641924145952 433.78797299435104 1265.7131721644018 433.78797299435104ZM1364.2673584949462 445.68244375838225L1364.2673584949462 445.68244375838225Q1351.9033691481245 445.68244375838225 1342.9825160751006 439.84699851512636Q1334.0840210298293 434.01155327187047 1329.2770450631629 423.7939345892346Q1324.470069096496 413.55395787884686 1324.470069096496 400.40743756070714L1324.470069096496 400.40743756070714Q1324.470069096496 387.037336965048 1329.4111932296742 376.77500222690827Q1334.3523173628528 366.5126674887686 1343.2508124081241 360.69958027326464Q1352.1493074533955 354.9088510855126 1364.0214201896747 354.9088510855126L1364.0214201896747 354.9088510855126Q1373.3000017067293 354.9088510855126 1380.7228669203728 358.32962933155915Q1388.1457321340163 361.7504075776057 1392.907992045179 367.94358126489266Q1397.6478939285903 374.11439692442764 1398.788153343939 382.34215113714095L1398.788153343939 382.34215113714095L1385.3062626095202 382.34215113714095Q1383.7412006668847 376.3278416718695 1378.4647061174269 371.6773718994663Q1373.1658535402175 367.0269021270632 1364.2673584949462 367.0269021270632L1364.2673584949462 367.0269021270632Q1356.3749746985118 367.0269021270632 1350.4500973442482 371.09606317791594Q1344.5252199899846 375.18758225652067 1341.2385899104497 382.58808944241224Q1337.9519598309148 389.98859662830387 1337.9519598309148 399.9379189779164L1337.9519598309148 399.9379189779164Q1337.9519598309148 410.11082160504833 1341.1938738549457 417.6678349852035Q1344.413429851225 425.2024903376067 1350.3383072054885 429.3834415272192Q1356.263184559752 433.56439271683166 1364.2673584949462 433.56439271683166L1364.2673584949462 433.56439271683166Q1369.521495016652 433.56439271683166 1373.8142363450238 431.7310344411727Q1378.0846196456441 429.8976761655138 1381.058237336652 426.47689791946726Q1384.0318550276597 423.03376164566873 1385.3062626095202 418.2491437067539L1385.3062626095202 418.2491437067539L1398.788153343939 418.2491437067539Q1397.6478939285903 426.0073793366765 1393.1539303504505 432.22291105171536Q1388.6599667723108 438.4160847390023 1381.326533669675 442.03808523481626Q1373.9707425392876 445.68244375838225 1364.2673584949462 445.68244375838225ZM1427.1381325333969 476.78246036132845L1427.1381325333969 476.78246036132845Q1423.7173542873502 476.78246036132845 1421.034390957118 476.22350966753Q1418.3290695991332 475.6869170014835 1417.3006003225437 475.1726823631889L1417.3006003225437 475.1726823631889L1420.7437365963424 463.2782115991577Q1425.662502701769 464.5526191810182 1429.4186513640948 464.1948907369872Q1433.1971580541722 463.8595203207081 1436.148417717428 460.8635446019484Q1439.0773193529317 457.84521085543673 1441.536702405645 451.1601605576071L1441.536702405645 451.1601605576071L1444.063159541614 444.29624603776205L1411.5993032457995 356.04911050086145L1426.2214533955676 356.04911050086145L1450.4575554786684 426.0073793366765L1451.3742346164981 426.0073793366765L1475.610336699599 356.04911050086145L1490.2548448771186 356.04911050086145L1452.9840126146373 456.660235384584Q1450.4575554786684 463.4570758211732 1446.7461228718466 467.95103939931283Q1443.034690265025 472.4226449497005 1438.1382821873503 474.61373166939046Q1433.2642321374278 476.78246036132845 1427.1381325333969 476.78246036132845Z " fill="#fbeaeb" transform="matrix(0.5871479191226748,0,0,0.5871479191226748,0,64.09428323847746)"/></g></svg>